<?xml version="1.0" encoding="utf-8"?>
<!-- Generator: Adobe Illustrator 25.2.0, SVG Export Plug-In . SVG Version: 6.00 Build 0)  -->
<svg version="1.1" id="レイヤー_1" xmlns="http://www.w3.org/2000/svg" xmlns:xlink="http://www.w3.org/1999/xlink" x="0px"
	 y="0px" viewBox="0 0 340 53" style="enable-background:new 0 0 340 53;" xml:space="preserve">
<style type="text/css">
	.st0{fill:#CF1225;}
</style>
<g>
	<rect x="86" y="14.2" class="st0" width="3.8" height="25.6"/>
	<polygon class="st0" points="136.4,14.2 127.4,14.2 127.4,15.2 136.4,15.2 136.4,39.8 140.5,39.8 140.5,15.2 149.6,15.2 
		149.6,14.2 140.5,14.2 	"/>
	<polygon class="st0" points="119.7,34 101.5,14.2 100.1,14.2 100.1,39.8 101.5,39.8 101.5,19.8 119.7,39.8 121.1,39.8 121.1,14.2 
		119.7,14.2 	"/>
	<polygon class="st0" points="199.7,34 181.5,14.2 180.1,14.2 180.1,39.8 181.5,39.8 181.5,19.8 199.7,39.8 201.1,39.8 201.1,14.2 
		199.7,14.2 	"/>
	<polygon class="st0" points="156.2,14.2 155.2,14.2 155.2,39.8 156.3,39.8 159.3,39.8 172.6,39.8 172.6,38.8 159.3,38.8 
		159.3,25.9 171.1,25.9 171.1,24.9 159.3,24.9 159.3,15.2 172.6,15.2 172.6,14.2 159.3,14.2 	"/>
	<polygon class="st0" points="254.9,15.2 254.9,14.2 241.6,14.2 238.5,14.2 237.5,14.2 237.5,39.8 238.6,39.8 241.6,39.8 
		254.9,39.8 254.9,38.8 241.6,38.8 241.6,25.9 253.4,25.9 253.4,24.9 241.6,24.9 241.6,15.2 	"/>
	<g>
		<path class="st0" d="M209.6,36.8v0.8c1.2-0.2,2.4-0.6,3.7-1.5c2.5-1.8,3.9-5.6,5.2-9.5h-2.7C214.8,31,213.6,35.7,209.6,36.8z"/>
		<path class="st0" d="M229,13.9c-4.5,0-9.5,1-11.9,8.1c-0.3,0.9-0.6,1.9-0.8,3h2.9c1-2.9,2-5.6,3.6-7.1c2.5-2.6,6.9-3.6,11.3-2.3
			v-0.8C232.5,14.2,230.7,13.9,229,13.9z"/>
	</g>
	<g>
		<path class="st0" d="M229.5,16.9v-0.8c-1.2,0.2-2.4,0.6-3.7,1.5c-2.5,1.8-3.9,5.6-5.2,9.5h2.7C224.3,22.7,225.5,18.1,229.5,16.9z"
			/>
		<path class="st0" d="M210.1,39.9c4.5,0,9.5-1,11.9-8.1c0.3-0.9,0.6-1.9,0.8-3H220c-1,2.9-2,5.6-3.6,7.1c-2.5,2.6-6.9,3.6-11.3,2.3
			V39C206.6,39.5,208.4,39.9,210.1,39.9z"/>
	</g>
</g>
</svg>
