<?xml version="1.0" encoding="utf-8"?>
<!-- Generator: Adobe Illustrator 25.2.0, SVG Export Plug-In . SVG Version: 6.00 Build 0)  -->
<svg version="1.1" id="レイヤー_1" xmlns="http://www.w3.org/2000/svg" xmlns:xlink="http://www.w3.org/1999/xlink" x="0px"
	 y="0px" viewBox="0 0 340 53" style="enable-background:new 0 0 340 53;" xml:space="preserve">
<rect id="Rectangle_12" x="0.7" y="1.3" width="7.7" height="51.5"/>
<path id="Path_11" d="M102.1,1.4H83.9v2h18.2v49.5h8.2V3.3h18.2v-2H102.1z"/>
<path id="Path_12" d="M68.5,41.3L31.9,1.4h-2.8v51.5h2.8V12.7l36.6,40.1h2.8V1.4h-2.8L68.5,41.3z"/>
<path id="Path_13" d="M229.2,41.3L192.6,1.4h-2.8v51.5h2.8V12.7l36.6,40.1h2.8V1.4h-2.8L229.2,41.3z"/>
<path id="Path_14" d="M141.9,1.4h-2.1v51.5h34.9v-2h-26.6v-26h23.7V23h-23.7V3.3h26.6v-2H141.9z"/>
<path id="Path_15" d="M340.1,3.3v-2h-34.9v51.5h34.9v-2h-26.6v-26h23.7V23h-23.7V3.3H340.1z"/>
<g id="Group_5" transform="translate(248.49)">
	<path id="Path_16" d="M0.7,46.9v1.5c2.7-0.4,5.2-1.4,7.4-3c5.1-3.6,7.9-11.3,10.5-19h-5.4C11.2,35.2,8.7,44.5,0.7,46.9z"/>
	<path id="Path_17" d="M39.6,0.7c-9.1,0-19,1.9-23.9,16.2c-0.6,1.8-1.1,3.8-1.6,6h5.8c2-5.8,4.1-11.2,7.2-14.4
		C32.1,3.4,40.8,1.4,49.7,4V2.5C46.4,1.4,43,0.8,39.6,0.7z"/>
</g>
<g id="Group_6" transform="translate(239.388 4.6)">
	<path id="Path_18" d="M49.7,2.3V0.7c-2.7,0.4-5.2,1.4-7.4,3c-5.1,3.5-7.9,11.3-10.5,19h5.4C39.3,13.9,41.7,4.7,49.7,2.3z"/>
	<path id="Path_19" d="M10.8,48.4c9.1,0,19-1.9,23.9-16.2c0.6-1.8,1.1-3.8,1.6-6h-5.8c-2,5.8-4.1,11.2-7.2,14.4
		c-5.1,5.2-13.8,7.2-22.7,4.6v1.5C4,47.8,7.4,48.4,10.8,48.4z"/>
</g>
</svg>
