<?xml version="1.0" encoding="utf-8"?>
<!-- Generator: Adobe Illustrator 25.2.0, SVG Export Plug-In . SVG Version: 6.00 Build 0)  -->
<svg version="1.1" id="レイヤー_1" xmlns="http://www.w3.org/2000/svg" xmlns:xlink="http://www.w3.org/1999/xlink" x="0px"
	 y="0px" viewBox="0 0 340 53" style="enable-background:new 0 0 340 53;" xml:space="preserve">
<style type="text/css">
	.st0{fill:#CF1225;}
	.st1{fill:#FFFFFF;}
</style>
<g>
	<rect x="145.3" y="1.8" class="st0" width="50.2" height="50.2"/>
	<g>
		<rect x="170.2" y="5.5" class="st1" width="0.4" height="12.9"/>
		<polygon class="st1" points="161.9,20.5 149,20.5 149,20.9 155.3,20.9 155.3,33.1 155.7,33.1 155.7,20.9 161.9,20.9 		"/>
		<path class="st1" d="M191.3,20.5c0,0,0,11.2,0,12.1c-0.6-0.6-10.3-10.3-12.1-12.1h-0.3v0.2v12.7h0.4c0,0,0-11.2,0-12.1
			c0.6,0.6,10.3,10.3,12.1,12.1h0.3V20.5H191.3z"/>
		<path class="st1" d="M191.3,5.5c0,0,0,11.2,0,12.1c-0.6-0.6-10.3-10.3-12.1-12.1h-0.3v12.9h0.4c0,0,0-11.2,0-12.1
			c0.6,0.6,10.3,10.3,12.1,12.1h0.3V5.5H191.3z"/>
		<path class="st1" d="M176.8,20.9v-0.4h-12.7H164v12.9h12.9v-0.4c0,0-12,0-12.4,0c0-0.2,0-3,0-5.8h12.4v-0.4h-12.4
			c0-2.8,0-5.6,0-5.8C164.8,20.9,176.8,20.9,176.8,20.9z"/>
		<path class="st1" d="M176.8,35.8v-0.4h-12.7H164v12.9h12.9v-0.4c0,0-12,0-12.4,0c0-0.2,0-3,0-5.8h12.4v-0.4h-12.4
			c0-2.8,0-5.6,0-5.8C164.8,35.8,176.8,35.8,176.8,35.8z"/>
		<path class="st1" d="M149.3,35.4H149V42c0,0,12,0,12.4,0c0,0.4,0,5.4,0,5.8c-0.4,0-12.4,0-12.4,0v0.4h12.9v-6.7c0,0-12,0-12.4,0
			c0-0.4,0-5.4,0-5.8c0.4,0,12.4,0,12.4,0v-0.4H149.3z"/>
	</g>
	<rect x="178.8" y="35.4" class="st1" width="12.9" height="12.9"/>
	<g>
		<path class="st0" d="M181.2,38.1h4.2v1.3h-3v1.8h2.6v1.3h-2.6v3.3h-1.2V38.1z"/>
		<path class="st0" d="M187.5,38.6h-0.9v-0.5h2.4v0.5h-0.9v2.5h-0.6V38.6z"/>
		<path class="st0" d="M189.1,45c-0.1,0.2-0.3,1-1.2,1c-0.8,0-1.4-0.6-1.4-1.5c0-0.8,0.4-1.6,1.4-1.6c0.2,0,0.6,0,0.9,0.3
			c0.1,0.2,0.2,0.3,0.3,0.5l-0.6,0.1c-0.1-0.3-0.3-0.5-0.6-0.5c-0.7,0-0.7,0.8-0.7,1c0,0.3,0,0.6,0.2,0.8c0.1,0.2,0.3,0.3,0.6,0.3
			c0.4,0,0.6-0.3,0.7-0.6L189.1,45z"/>
		<rect x="185.6" y="41.8" class="st0" width="4.4" height="0.2"/>
	</g>
</g>
</svg>
